<svg width="67" height="67" viewBox="0 0 67 67" fill="none" xmlns="http://www.w3.org/2000/svg">
<path d="M0 51.5293H17.5929L25.4694 43.7247H22.9319L17.067 49.3862H15.4047L22.2315 42.9533L21.3565 41.8376L15.0545 47.4992H11.2031L15.1423 43.7247L12.7347 43.6387L8.1399 48.0131L6.56438 47.7561L20.3936 34.8156L20.4375 31.9736L0 51.5293Z" fill="url(#paint0_linear_66_68)"/>
<path d="M42.8877 45.2256L43.9813 43.8959L49.3642 49.1711H50.8521L44.5061 43.2534L45.6007 41.7516L51.6843 47.7129L55.7972 47.6702L52.121 44.1108L54.7033 44.0679L58.3355 47.627H59.9547L46.301 34.8156L46.3451 31.9736L67 51.5293L49.1744 51.5725L42.8877 45.2256Z" fill="url(#paint1_linear_66_68)"/>
<path d="M48.6711 16.8542L66.0806 0.200122L49.0431 0L39.5605 9.37766L41.0492 10.7505L49.5383 2.45851L56.4243 2.43045L45.4254 13.1519L46.7959 14.6388L58.3207 3.40207H59.7501L47.3501 15.4103L48.6711 16.8542Z" fill="url(#paint2_linear_66_68)"/>
<path d="M25.7617 10.7859L27.3372 9.44214L17.7678 0.0644531L0.642578 0.235586L17.972 16.7896L19.2994 15.3495L7.00275 3.45905L8.58875 3.48055L19.9016 14.6743L21.3568 13.2912L10.3169 2.45189L17.2535 2.44067L25.7617 10.7859Z" fill="url(#paint3_linear_66_68)"/>
<path d="M51.2451 66.9488V60.3877H52.3449V66.9488H51.2451ZM52.0008 66.9488V65.9646H55.5016V66.9488H52.0008Z" fill="#006BD4"/>
<path d="M44.0488 66.9488V60.3877H45.1485V66.9488H44.0488ZM44.8044 66.9488V65.9646H48.5535V66.9488H44.8044ZM44.8044 64.0714V63.1246H48.2288V64.0714H44.8044ZM44.8044 61.372V60.3877H48.5059V61.372H44.8044Z" fill="#006BD4"/>
<path d="M38.2087 66.9488L35.502 60.3877H36.6975L38.8113 65.7023H38.3905L40.5234 60.3877H41.6998L38.9739 66.9488H38.2087Z" fill="#006BD4"/>
<path d="M27.4062 66.9488L30.1609 60.3877H30.926L33.6615 66.9488H32.4755L30.333 61.6342H30.7347L28.5731 66.9488H27.4062ZM28.7644 65.6833V64.7462H32.3129V65.6833H28.7644Z" fill="#006BD4"/>
<path d="M20.0651 64.1648V63.2744H21.7581C22.096 63.2744 22.3575 63.1902 22.5424 63.0214C22.7337 62.8464 22.8293 62.6062 22.8293 62.2998C22.8293 62.0248 22.7369 61.7938 22.552 61.606C22.367 61.4187 22.1056 61.3248 21.7677 61.3248H20.0651V60.3877H21.8155C22.2363 60.3877 22.6062 60.4719 22.925 60.6407C23.2438 60.8034 23.4893 61.0282 23.6615 61.3156C23.84 61.5968 23.9293 61.9186 23.9293 62.2809C23.9293 62.6622 23.84 62.9932 23.6615 63.2744C23.4893 63.5556 23.2438 63.7743 22.925 63.9308C22.6062 64.0868 22.2363 64.1648 21.8155 64.1648H20.0651ZM19.3096 66.9488V60.3877H20.4095V66.9488H19.3096ZM22.9824 66.9488L20.639 64.0996L21.6625 63.7337L24.3692 66.9488H22.9824Z" fill="#006BD4"/>
<path d="M13.4004 66.9995V60.5768H14.4875V66.9995H13.4004ZM11.2451 61.3795V60.3877H16.6427V61.3795H11.2451Z" fill="#006BD4"/>
<mask id="mask0_66_68" style="mask-type:alpha" maskUnits="userSpaceOnUse" x="33" y="12" width="15" height="25">
<path d="M47.6788 12.3418H33.2852V36.1444H47.6788V12.3418Z" fill="#D9D9D9"/>
</mask>
<g mask="url(#mask0_66_68)">
<path d="M23.171 13.8846C22.6312 14.7661 21.8966 24.6839 21.5967 29.5326C21.5746 29.8852 22.1872 30.2673 22.4963 30.4142L27.8939 32.3977C29.6931 33.103 30.2928 35.1894 30.3678 36.1444H35.5405C35.7204 33.4997 37.4147 32.3977 38.2393 32.1773L43.6909 30.1987C44.0601 30.0647 44.2977 29.7109 44.2758 29.3257C43.9077 22.8477 43.2524 16.5222 42.9622 14.105C43.6819 14.6339 43.8618 16.2354 43.8618 16.9701H44.3116C44.3116 13.2675 41.4629 12.3418 40.0385 12.3418H25.1951C22.1364 12.8707 21.5217 15.6477 21.5967 16.9701H22.0465C22.0465 14.8543 22.7962 14.0315 23.171 13.8846Z" fill="#FF8B00"/>
</g>
<mask id="mask1_66_68" style="mask-type:alpha" maskUnits="userSpaceOnUse" x="18" y="12" width="16" height="25">
<path d="M18.8915 12.3418H33.2852V36.1444H18.8915V12.3418Z" fill="#D9D9D9"/>
</mask>
<g mask="url(#mask1_66_68)">
<path d="M43.3994 13.8846C43.9392 14.7661 44.6738 24.6839 44.9737 29.5326C44.9957 29.8852 44.3832 30.2673 44.0741 30.4142L38.6765 32.3977C36.8773 33.103 36.2776 35.1894 36.2026 36.1444H31.0299C30.85 33.4997 29.1557 32.3977 28.3311 32.1773L22.8795 30.1987C22.5103 30.0647 22.2727 29.7109 22.2946 29.3257C22.6627 22.8477 23.318 16.5222 23.6082 14.105C22.8885 14.6339 22.7086 16.2354 22.7086 16.9701H22.2588C22.2588 13.2675 25.1075 12.3418 26.5319 12.3418H41.3753C44.4339 12.8707 45.0488 15.6477 44.9737 16.9701H44.5239C44.5239 14.8543 43.7742 14.0315 43.3994 13.8846Z" fill="#FF8B00"/>
</g>
<path d="M20.241 18.5131L21.8153 18.0723V19.1742L20.6908 19.615V24.2433C20.6908 24.9486 20.241 25.1249 20.0161 25.1249H19.5663C19.0265 25.1249 18.8916 24.5372 18.8916 24.2433V19.615L19.5663 18.9538C19.7462 18.7775 20.0911 18.5865 20.241 18.5131Z" fill="#FF8B00"/>
<path d="M46.1046 18.5131L44.5303 18.0723V19.1742L45.6548 19.615V24.2433C45.6548 24.9486 46.1046 25.1249 46.3295 25.1249H46.7793C47.319 25.1249 47.454 24.5372 47.454 24.2433V19.615L46.7793 18.9538C46.5994 18.7775 46.2544 18.5865 46.1046 18.5131Z" fill="#FF8B00"/>
<path d="M30.1367 31.957H36.8837L36.7062 32.6182H30.3143L30.1367 31.957Z" fill="#FFEE00"/>
<path d="M30.5869 33.0586H35.9845L35.8425 33.4994H30.729L30.5869 33.0586Z" fill="#FFEE00"/>
<path d="M31.4863 33.9404H35.0847L34.99 34.3812H31.581L31.4863 33.9404Z" fill="#FFEE00"/>
<path d="M27.8877 33.9409L22.0403 31.5166L21.8154 37.0265C21.8154 38.2607 22.9399 39.01 23.6146 39.01H33.7351V37.6877H30.5865C29.2371 37.6877 29.0122 35.9245 28.7873 35.0429C28.6074 34.3377 28.1126 34.0144 27.8877 33.9409Z" fill="#FF8B00"/>
<path d="M38.908 33.9409L44.7554 31.5166L44.9803 37.0265C44.9803 38.2607 43.8558 39.01 43.1811 39.01H33.0605V37.6877H36.2091C37.5585 37.6877 37.7834 35.9245 38.0083 35.0429C38.1883 34.3377 38.6831 34.0144 38.908 33.9409Z" fill="#FF8B00"/>
<path d="M23.6143 39.6709H26.9878V40.9933C26.9878 41.2367 26.7864 41.4341 26.538 41.4341H24.0641C23.8156 41.4341 23.6143 41.2367 23.6143 40.9933V39.6709Z" fill="#FF8B00"/>
<path d="M39.8066 39.6709H43.1801V40.9933C43.1801 41.2367 42.9788 41.4341 42.7303 41.4341H40.2564C40.008 41.4341 39.8066 41.2367 39.8066 40.9933V39.6709Z" fill="#FF8B00"/>
<path d="M29.6865 15.2071V13.8848H37.1082V15.2071C37.1082 15.5598 36.6584 15.6479 36.4335 15.6479H30.1363C29.7765 15.6479 29.6865 15.354 29.6865 15.2071Z" fill="white"/>
<path d="M26.5381 33.9409C25.2787 33.7646 23.4645 32.692 22.7148 32.1777V34.8225C22.7148 35.1751 23.3146 35.5571 23.6144 35.7041L28.3373 37.2468L27.4377 34.8225C27.2578 34.2935 26.763 34.0144 26.5381 33.9409Z" fill="white"/>
<path d="M40.2572 33.9409C41.5166 33.7646 43.3308 32.692 44.0805 32.1777V34.8225C44.0805 35.1751 43.4808 35.5571 43.1809 35.7041L38.458 37.2468L39.3576 34.8225C39.5375 34.2935 40.0323 34.0144 40.2572 33.9409Z" fill="white"/>
<path d="M32.8584 16.4141C32.847 20.2579 32.8357 24.1006 32.8253 27.9444C32.7509 28.1278 32.6103 28.3937 32.3477 28.6266C31.682 29.2166 30.8053 29.0875 30.6648 29.0642C28.8619 29.0273 27.059 28.9904 25.2571 28.9526C24.948 28.9012 24.2244 28.7682 23.6786 28.5188C23.5814 28.4742 23.4646 28.415 23.3426 28.3073C23.0904 28.0851 22.986 27.8085 22.9395 27.6397C23.0356 25.4941 23.1545 23.3175 23.2982 21.1089C23.3809 19.8367 23.4708 18.5752 23.567 17.3263C23.6031 17.1691 23.6776 16.9634 23.8471 16.7926C23.8471 16.7926 24.0662 16.5714 24.4405 16.4918C24.9636 16.3812 28.2954 16.3472 32.8584 16.4141Z" fill="white"/>
<mask id="mask2_66_68" style="mask-type:luminance" maskUnits="userSpaceOnUse" x="33" y="16" width="11" height="14">
<path d="M43.6303 16.3086H33.7578V29.0207H43.6303V16.3086Z" fill="white"/>
</mask>
<g mask="url(#mask2_66_68)">
<path d="M33.7578 16.3419C33.7682 20.1856 33.7806 24.0284 33.7909 27.8721C33.8643 28.0555 34.0049 28.3214 34.2664 28.5543C34.9281 29.1443 35.8016 29.0152 35.9422 28.992C37.7368 28.9551 39.5304 28.9182 41.325 28.8803C41.632 28.8289 42.3525 28.696 42.8963 28.4466C42.9924 28.402 43.1093 28.3428 43.2302 28.235C43.4814 28.0128 43.5848 27.7362 43.6313 27.5674C43.5362 25.4219 43.4173 23.2453 43.2746 21.0366C43.1909 19.7645 43.102 18.5039 43.0069 17.254C42.9707 17.0969 42.8973 16.8911 42.7278 16.7203C42.7278 16.7203 42.5097 16.4991 42.1365 16.4195C41.6144 16.3089 38.2991 16.2749 33.7578 16.3419Z" fill="white"/>
</g>
<path d="M24.9633 35.4835C25.3357 35.4835 25.6376 35.1875 25.6376 34.8223C25.6376 34.4572 25.3357 34.1611 24.9633 34.1611C24.5909 34.1611 24.2891 34.4572 24.2891 34.8223C24.2891 35.1875 24.5909 35.4835 24.9633 35.4835Z" fill="#006BD4"/>
<path d="M41.8316 35.4835C41.4592 35.4835 41.1573 35.1875 41.1573 34.8223C41.1573 34.4572 41.4592 34.1611 41.8316 34.1611C42.204 34.1611 42.5059 34.4572 42.5059 34.8223C42.5059 35.1875 42.204 35.4835 41.8316 35.4835Z" fill="#006BD4"/>
<defs>
<linearGradient id="paint0_linear_66_68" x1="24.6725" y1="31.9736" x2="6.2315" y2="47.1656" gradientUnits="userSpaceOnUse">
<stop stop-color="#0088DC"/>
<stop offset="1" stop-color="#006BD4"/>
</linearGradient>
<linearGradient id="paint1_linear_66_68" x1="66.2456" y1="31.9736" x2="47.9926" y2="46.1781" gradientUnits="userSpaceOnUse">
<stop stop-color="#0088DC"/>
<stop offset="1" stop-color="#006BD4"/>
</linearGradient>
<linearGradient id="paint2_linear_66_68" x1="65.2509" y1="-1.62156e-06" x2="49.0581" y2="16.1166" gradientUnits="userSpaceOnUse">
<stop stop-color="#0088DC"/>
<stop offset="1" stop-color="#006BD4"/>
</linearGradient>
<linearGradient id="paint3_linear_66_68" x1="26.5021" y1="0.0644515" x2="10.4338" y2="16.2866" gradientUnits="userSpaceOnUse">
<stop stop-color="#0088DC"/>
<stop offset="1" stop-color="#006BD4"/>
</linearGradient>
</defs>
</svg>
