<svg width="68" height="52" viewBox="0 0 68 52" fill="none" xmlns="http://www.w3.org/2000/svg">
<mask id="mask0_57_3814" style="mask-type:alpha" maskUnits="userSpaceOnUse" x="33" y="12" width="16" height="25">
<path d="M48.3907 12.4443H33.7822V36.4443H48.3907V12.4443Z" fill="#D9D9D9"/>
</mask>
<g mask="url(#mask0_57_3814)">
<path d="M23.5168 13.9999C22.969 14.8888 22.2234 24.8888 21.919 29.7777C21.8967 30.1332 22.5184 30.5184 22.8321 30.6666L28.3102 32.6666C30.1363 33.3777 30.7449 35.4814 30.821 36.4443H36.0709C36.2536 33.7777 37.9731 32.6666 38.81 32.4443L44.343 30.4493C44.7177 30.3142 44.9589 29.9574 44.9366 29.569C44.5631 23.0373 43.898 16.6594 43.6034 14.2221C44.3338 14.7554 44.5164 16.3702 44.5164 17.111H44.973C44.973 13.3777 42.0817 12.4443 40.6361 12.4443H25.5711C22.4668 12.9777 21.843 15.7777 21.919 17.111H22.3755C22.3755 14.9777 23.1364 14.148 23.5168 13.9999Z" fill="#FF8B00"/>
</g>
<mask id="mask1_57_3814" style="mask-type:alpha" maskUnits="userSpaceOnUse" x="19" y="12" width="15" height="25">
<path d="M19.1738 12.4443H33.7822V36.4443H19.1738V12.4443Z" fill="#D9D9D9"/>
</mask>
<g mask="url(#mask1_57_3814)">
<path d="M44.0479 13.9999C44.5958 14.8888 45.3414 24.8888 45.6457 29.7777C45.6681 30.1332 45.0464 30.5184 44.7327 30.6666L39.2545 32.6666C37.4285 33.3777 36.8198 35.4814 36.7437 36.4443H31.4938C31.3112 33.7777 29.5917 32.6666 28.7547 32.4443L23.2217 30.4493C22.847 30.3142 22.6059 29.9574 22.6281 29.569C23.0017 23.0373 23.6668 16.6594 23.9613 14.2221C23.2309 14.7554 23.0483 16.3702 23.0483 17.111H22.5918C22.5918 13.3777 25.483 12.4443 26.9287 12.4443H41.9936C45.0979 12.9777 45.722 15.7777 45.6457 17.111H45.1892C45.1892 14.9777 44.4284 14.148 44.0479 13.9999Z" fill="#FF8B00"/>
</g>
<path d="M20.5434 18.6661L22.1412 18.2217V19.3328L20.9999 19.7772V24.4439C20.9999 25.155 20.5434 25.3328 20.3151 25.3328H19.8586C19.3108 25.3328 19.1738 24.7402 19.1738 24.4439V19.7772L19.8586 19.1106C20.0412 18.9328 20.3912 18.7402 20.5434 18.6661Z" fill="#FF8B00"/>
<path d="M46.7931 18.6661L45.1953 18.2217V19.3328L46.3366 19.7772V24.4439C46.3366 25.155 46.7931 25.3328 47.0214 25.3328H47.4779C48.0257 25.3328 48.1627 24.7402 48.1627 24.4439V19.7772L47.4779 19.1106C47.2953 18.9328 46.9451 18.7402 46.7931 18.6661Z" fill="#FF8B00"/>
<path d="M30.5869 32.2217H37.4346L37.2544 32.8883H30.7671L30.5869 32.2217Z" fill="#FFEE00"/>
<path d="M31.043 33.333H36.5211L36.377 33.7775H31.1871L31.043 33.333Z" fill="#FFEE00"/>
<path d="M31.957 34.2217H35.6091L35.513 34.6661H32.0531L31.957 34.2217Z" fill="#FFEE00"/>
<path d="M28.3045 34.2218L22.3699 31.7773L22.1416 37.3329C22.1416 38.5773 23.2829 39.3329 23.9677 39.3329H34.2392V37.9996H31.0436C29.6741 37.9996 29.4458 36.2218 29.2176 35.3329C29.035 34.6218 28.5328 34.2959 28.3045 34.2218Z" fill="#FF8B00"/>
<path d="M39.4894 34.2218L45.424 31.7773L45.6523 37.3329C45.6523 38.5773 44.511 39.3329 43.8262 39.3329H33.5547V37.9996H36.7503C38.1198 37.9996 38.3481 36.2218 38.5763 35.3329C38.7589 34.6218 39.2611 34.2959 39.4894 34.2218Z" fill="#FF8B00"/>
<path d="M23.9678 40H27.3916V41.3333C27.3916 41.5788 27.1872 41.7778 26.9351 41.7778H24.4243C24.1722 41.7778 23.9678 41.5788 23.9678 41.3333V40Z" fill="#FF8B00"/>
<path d="M40.4023 40H43.8262V41.3333C43.8262 41.5788 43.6218 41.7778 43.3697 41.7778H40.8589C40.6067 41.7778 40.4023 41.5788 40.4023 41.3333V40Z" fill="#FF8B00"/>
<path d="M30.1309 15.3333V14H37.6633V15.3333C37.6633 15.6889 37.2068 15.7778 36.9786 15.7778H30.5874C30.2222 15.7778 30.1309 15.4815 30.1309 15.3333Z" fill="white"/>
<path d="M26.9351 34.2221C25.6568 34.0443 23.8156 32.9629 23.0547 32.4443V35.111C23.0547 35.4666 23.6634 35.8518 23.9677 35.9999L28.7611 37.5554L27.8481 35.111C27.6655 34.5777 27.1633 34.2962 26.9351 34.2221Z" fill="white"/>
<path d="M40.8593 34.2221C42.1375 34.0443 43.9788 32.9629 44.7396 32.4443V35.111C44.7396 35.4666 44.131 35.8518 43.8266 35.9999L39.0332 37.5554L39.9462 35.111C40.1288 34.5777 40.631 34.2962 40.8593 34.2221Z" fill="white"/>
<path d="M33.3502 16.5502C33.3386 20.4258 33.3271 24.3004 33.3166 28.176C33.2411 28.3609 33.0984 28.629 32.8319 28.8639C32.1562 29.4587 31.2665 29.3286 31.1238 29.3051C29.294 29.2679 27.4642 29.2307 25.6355 29.1926C25.3218 29.1407 24.5874 29.0067 24.0334 28.7552C23.9347 28.7102 23.8162 28.6505 23.6924 28.5419C23.4364 28.3179 23.3304 28.039 23.2832 27.8688C23.3808 25.7055 23.5014 23.5108 23.6473 21.2839C23.7312 20.0011 23.8225 18.7291 23.9201 17.4699C23.9568 17.3114 24.0323 17.104 24.2044 16.9318C24.2044 16.9318 24.4268 16.7087 24.8066 16.6284C25.3375 16.5169 28.719 16.4827 33.3502 16.5502Z" fill="white"/>
<mask id="mask2_57_3814" style="mask-type:luminance" maskUnits="userSpaceOnUse" x="34" y="16" width="11" height="14">
<path d="M44.2825 16.4443H34.2627V29.2619H44.2825V16.4443Z" fill="white"/>
</mask>
<g mask="url(#mask2_57_3814)">
<path d="M34.2627 16.4779C34.2732 20.3535 34.2858 24.2281 34.2963 28.1037C34.3708 28.2887 34.5135 28.5567 34.7789 28.7916C35.4504 29.3865 36.337 29.2563 36.4797 29.2329C38.3011 29.1957 40.1214 29.1585 41.9428 29.1203C42.2544 29.0685 42.9857 28.9344 43.5375 28.683C43.6352 28.638 43.7537 28.5783 43.8765 28.4697C44.1314 28.2456 44.2363 27.9667 44.2835 27.7965C44.187 25.6332 44.0664 23.4385 43.9216 21.2116C43.8366 19.9289 43.7464 18.6579 43.6498 17.3976C43.6131 17.2391 43.5386 17.0317 43.3665 16.8595C43.3665 16.8595 43.1452 16.6364 42.7664 16.5562C42.2366 16.4447 38.8718 16.4104 34.2627 16.4779Z" fill="white"/>
</g>
<path d="M25.3367 35.7777C25.7146 35.7777 26.021 35.4792 26.021 35.111C26.021 34.7428 25.7146 34.4443 25.3367 34.4443C24.9587 34.4443 24.6523 34.7428 24.6523 35.111C24.6523 35.4792 24.9587 35.7777 25.3367 35.7777Z" fill="#006BD4"/>
<path d="M42.4573 35.7777C42.0793 35.7777 41.773 35.4792 41.773 35.111C41.773 34.7428 42.0793 34.4443 42.4573 34.4443C42.8352 34.4443 43.1416 34.7428 43.1416 35.111C43.1416 35.4792 42.8352 35.7777 42.4573 35.7777Z" fill="#006BD4"/>
<path d="M0 51.9561H17.8554L25.8495 44.0868H23.2742L17.3218 49.7952H15.6346L22.5633 43.3089L21.6752 42.1841L15.2792 47.8925H11.3703L15.3683 44.0868L12.9248 44.0001L8.26139 48.4108L6.66236 48.1517L20.698 35.1038L20.7426 32.2383L0 51.9561Z" fill="url(#paint0_linear_57_3814)"/>
<path d="M43.5273 45.6001L44.6373 44.2594L50.1005 49.5783H51.6107L45.1699 43.6116L46.2809 42.0973L52.4552 48.1081L56.6296 48.065L52.8985 44.4761L55.5193 44.4329L59.2057 48.0214H60.8491L46.9916 35.1038L47.0364 32.2383L67.9995 51.9561L49.9079 51.9997L43.5273 45.6001Z" fill="url(#paint1_linear_57_3814)"/>
<path d="M49.3979 16.994L67.0673 0.201781L49.7754 0L40.1514 9.45542L41.6622 10.8396L50.2781 2.47889L57.2668 2.4506L46.1037 13.261L47.4947 14.7602L59.1915 3.43028H60.6423L48.0571 15.5381L49.3979 16.994Z" fill="url(#paint2_linear_57_3814)"/>
<path d="M26.1464 10.8758L27.7454 9.52087L18.0332 0.0654297L0.652344 0.237981L18.2404 16.9293L19.5877 15.4772L7.10745 3.48817L8.71712 3.50985L20.1988 14.7964L21.6758 13.4019L10.4711 2.47266L17.5112 2.46135L26.1464 10.8758Z" fill="url(#paint3_linear_57_3814)"/>
<defs>
<linearGradient id="paint0_linear_57_3814" x1="25.0408" y1="32.2383" x2="6.42387" y2="47.6761" gradientUnits="userSpaceOnUse">
<stop stop-color="#0088DC"/>
<stop offset="1" stop-color="#006BD4"/>
</linearGradient>
<linearGradient id="paint1_linear_57_3814" x1="67.2338" y1="32.2383" x2="48.8002" y2="46.6777" gradientUnits="userSpaceOnUse">
<stop stop-color="#0088DC"/>
<stop offset="1" stop-color="#006BD4"/>
</linearGradient>
<linearGradient id="paint2_linear_57_3814" x1="66.2252" y1="-1.635e-06" x2="49.898" y2="16.3573" gradientUnits="userSpaceOnUse">
<stop stop-color="#0088DC"/>
<stop offset="1" stop-color="#006BD4"/>
</linearGradient>
<linearGradient id="paint3_linear_57_3814" x1="26.8978" y1="0.0654281" x2="10.6977" y2="16.5283" gradientUnits="userSpaceOnUse">
<stop stop-color="#0088DC"/>
<stop offset="1" stop-color="#006BD4"/>
</linearGradient>
</defs>
</svg>
